<svg width="48" height="48" viewBox="0 0 48 48" fill="none" xmlns="http://www.w3.org/2000/svg">
<g opacity="0.4">
<mask id="mask0" mask-type="alpha" maskUnits="userSpaceOnUse" x="12" y="11" width="24" height="26">
<path fill-rule="evenodd" clip-rule="evenodd" d="M20.8 11.2C19.9163 11.2 19.2 11.9163 19.2 12.8V35.1999C19.2 36.0836 19.9163 36.7999 20.8 36.7999C21.6837 36.7999 22.4 36.0836 22.4 35.1999V12.8C22.4 11.9163 21.6837 11.2 20.8 11.2ZM25.6 16C25.6 15.1163 26.3163 14.4 27.2 14.4C28.0837 14.4 28.8 15.1163 28.8 16V32C28.8 32.8836 28.0837 33.5999 27.2 33.5999C26.3163 33.5999 25.6 32.8836 25.6 32V16ZM14.4 19.2C13.5163 19.2 12.8 19.9163 12.8 20.8V27.2C12.8 28.0836 13.5163 28.8 14.4 28.8C15.2837 28.8 16 28.0836 16 27.2V20.8C16 19.9163 15.2837 19.2 14.4 19.2ZM33.6 19.2C32.7163 19.2 32 19.9163 32 20.8V27.2C32 28.0836 32.7163 28.8 33.6 28.8C34.4837 28.8 35.2 28.0836 35.2 27.2V20.8C35.2 19.9163 34.4837 19.2 33.6 19.2Z" fill="white"/>
</mask>
<g mask="url(#mask0)">
<rect width="48" height="48" fill="black"/>
</g>
</g>
</svg>
