<svg width="45" height="45" viewBox="0 0 45 45" fill="none" xmlns="http://www.w3.org/2000/svg">
<g opacity="0.4">
<mask id="mask0" mask-type="alpha" maskUnits="userSpaceOnUse" x="10" y="9" width="25" height="27">
<path fill-rule="evenodd" clip-rule="evenodd" d="M15.75 15.75C15.75 17.5519 16.456 19.1889 17.6066 20.3994C10.3394 23.4256 10.5095 33.0501 10.5095 33.0501C10.3773 34.6793 11.6375 36 13.3183 36H31.6801C33.3636 36 34.6619 34.6497 34.4836 33.012C34.4836 33.012 34.6574 23.4173 27.3946 20.3982C28.5444 19.1878 29.25 17.5513 29.25 15.75C29.25 12.0221 26.2279 9 22.5 9C18.7721 9 15.75 12.0221 15.75 15.75ZM26.25 15.75C26.25 17.8211 24.5711 19.5 22.5 19.5C20.4289 19.5 18.75 17.8211 18.75 15.75C18.75 13.6789 20.4289 12 22.5 12C24.5711 12 26.25 13.6789 26.25 15.75ZM30.2649 27.4324C31.1409 29.4489 31.4391 31.567 31.4267 32.9668L31.4261 33H28.5V28.5H25.5V33H19.5V28.5H16.5V33H13.5664C13.5659 32.9028 13.5697 32.7319 13.5826 32.4987C13.6045 32.1037 13.6459 31.6656 13.7117 31.197C13.8938 29.9001 14.2257 28.6166 14.7317 27.4496C16.1158 24.2574 18.4637 22.5 22.4992 22.5C26.5366 22.5 28.8832 24.2518 30.2649 27.4324Z" fill="white"/>
</mask>
<g mask="url(#mask0)">
<rect width="45" height="45" fill="black"/>
</g>
</g>
</svg>
