<svg width="45" height="45" viewBox="0 0 45 45" fill="none" xmlns="http://www.w3.org/2000/svg">
<g opacity="0.4">
<mask id="mask0" mask-type="alpha" maskUnits="userSpaceOnUse" x="8" y="10" width="30" height="28">
<path fill-rule="evenodd" clip-rule="evenodd" d="M24.5918 24.749L24.5918 24.749L24.2036 23.1523L27.1002 19.2733L27.1002 19.2732L27.1003 19.2731C27.1092 19.2614 27.1097 19.2607 27.0972 19.2761L27.1288 19.2321L27.1534 19.1963L27.1687 19.1735L27.1984 19.1228C27.2155 19.093 27.2168 19.0908 27.2356 19.0525C27.2457 19.0336 27.2485 19.028 27.2522 19.0197L27.2989 19.0246L27.3219 18.8874L27.3627 18.8879L27.3722 18.5719L27.4112 18.3135L27.395 18.3111L27.4085 18.1696L27.341 18.166L27.3365 18.1468L27.3335 18.1348L27.3286 18.1163L27.3253 18.1038L27.3153 18.0694L27.3104 18.0543L27.2976 18.0174L27.2973 18.0164L27.2971 18.0158L27.2911 17.9991C27.2867 17.9871 27.2817 17.9752 27.2646 17.9343L27.2644 17.9336C27.2633 17.93 27.2616 17.9265 27.2335 17.8712L27.2333 17.8709L27.2333 17.8708C27.2351 17.8721 27.2358 17.8726 27.2315 17.864L27.2701 17.8293L27.0135 17.5501L27.0175 17.5552L27.0032 17.5397C26.9955 17.5306 26.992 17.5269 26.9795 17.5141L26.781 17.2992L26.7439 17.3246C26.7414 17.3228 26.7414 17.3228 26.7318 17.3166L26.7316 17.3165L26.6964 17.2954L26.6879 17.2905C26.6631 17.2757 26.6631 17.2757 26.6219 17.2544L26.6218 17.2544C26.6481 17.2678 26.6481 17.2678 26.6318 17.2587L26.6317 17.2587L26.6316 17.2586C26.5975 17.2412 26.5975 17.2412 26.5782 17.2324L26.5592 17.2239L26.5526 17.2208L26.5323 17.2117L20.3588 14.7404L17.9933 10.8097C17.7393 10.3855 17.2662 10.125 16.7591 10.125C16.5155 10.125 16.2753 10.1855 16.0621 10.3003C15.7302 10.4792 15.4886 10.7742 15.3866 11.1286C15.2833 11.4833 15.3333 11.8593 15.5252 12.1802L18.1404 16.5274C18.3287 16.84 18.6395 17.0689 19.0005 17.1632L23.7473 19.0651L21.511 22.0593L21.5109 22.0594L21.5109 22.0594C21.4937 22.0836 21.4937 22.0836 21.4792 22.1059L21.4565 22.1395C21.4492 22.151 21.4492 22.151 21.4446 22.1583L21.4446 22.1584C21.431 22.181 21.431 22.181 21.418 22.2033L21.4113 22.2152L21.3981 22.2404L21.3882 22.2597C21.3834 22.2693 21.3799 22.2764 21.377 22.2824C21.3741 22.2882 21.3719 22.2928 21.3697 22.2975C21.3654 22.3066 21.3613 22.3159 21.3533 22.334L21.3407 22.3649L21.3268 22.4012L21.322 22.4135L21.3153 22.4326L21.3072 22.4568L21.3012 22.4754L21.2966 22.4913L21.2932 22.5036L21.2871 22.5275L21.2871 22.5275C21.2809 22.5513 21.2809 22.5513 21.2719 22.592L21.2719 22.592L21.2719 22.5921C21.2654 22.6255 21.2654 22.6255 21.2596 22.6638L21.2596 22.6638L21.2596 22.6639L21.2596 22.664L21.2596 22.664L21.2596 22.664C21.2563 22.6853 21.2563 22.6854 21.2529 22.7111C21.2503 22.737 21.2491 22.7481 21.2483 22.7593L21.2473 22.7761L21.2466 22.7912L21.2461 22.7991L21.2453 22.8184L21.2451 22.8255L21.2447 22.8373L21.2445 22.8574L21.2446 22.8706L21.2453 22.8973L21.246 22.9124L21.2465 22.9235L21.2487 22.9559L21.2497 22.9687L21.2516 22.989L21.2516 22.989C21.2556 23.0298 21.2557 23.0299 21.2651 23.0819L21.2657 23.0871C21.2663 23.0923 21.2672 23.0975 21.2713 23.1196L21.2714 23.1197L21.4938 24.0354L14.4781 25.8343L14.4384 25.8462L14.4251 25.8503C14.4055 25.8562 14.4054 25.8562 14.3795 25.8648L14.3794 25.8648L14.3791 25.8649L14.3751 25.8661L14.3365 25.8792C14.3273 25.8825 14.3272 25.8826 14.315 25.8874L14.3148 25.8875L14.3148 25.8875L14.3148 25.8875C14.307 25.8904 14.307 25.8904 14.2904 25.8973L14.2592 25.9108C14.2365 25.9207 14.2351 25.9214 14.1992 25.9385L14.1677 25.9074L13.9649 26.081L13.9109 26.0452L13.8389 26.1492L13.8253 26.1418L13.7204 26.3075L13.6304 26.3928L13.6508 26.4145L13.4884 26.6275L13.5055 26.6398L13.4308 26.7536L13.4798 26.7823L13.4754 26.7975L13.4704 26.8162L13.4698 26.818C13.4683 26.8226 13.4672 26.8274 13.4574 26.8695L13.4574 26.8696L13.4574 26.8696L13.4574 26.8697C13.458 26.8644 13.458 26.8644 13.454 26.8836C13.4496 26.9065 13.4496 26.9066 13.4461 26.9267L13.4461 26.9267L13.4461 26.9267L13.446 26.9268L13.4428 26.9448L13.4408 26.9562C13.4398 26.9631 13.4388 26.97 13.437 26.9835L13.4356 26.9947L13.4306 27.0408L13.4306 27.0409C13.4288 27.0626 13.428 27.0735 13.4274 27.0845L13.4265 27.1054L13.4258 27.1282L13.4252 27.1459C13.425 31.4177 17.0746 34.875 21.5509 34.875C22.3327 34.875 22.9762 34.2653 22.9762 33.5054C22.9762 32.7448 22.3329 32.1352 21.5509 32.1352C19.0592 32.1352 16.8956 30.4428 16.3881 28.1807L23.5593 26.3415L23.5594 26.3415C23.5737 26.338 23.5811 26.3362 23.5884 26.3342C23.5916 26.3333 23.5949 26.3324 23.5987 26.3313C23.604 26.3297 23.6105 26.3277 23.6198 26.3249L23.62 26.3249L23.6201 26.3248L23.6202 26.3248L23.6324 26.3207L23.6468 26.3164L23.6635 26.3116L23.6988 26.299L23.7305 26.2866L23.7451 26.2804C23.7506 26.2779 23.7561 26.2753 23.7695 26.269L23.7684 26.2702L23.7683 26.2705C23.7687 26.2712 23.7747 26.2687 23.7986 26.2589L23.7987 26.2589L23.7988 26.2588L23.8179 26.2502L23.8667 26.2258L23.8667 26.2258L23.8669 26.2257C23.8865 26.2154 23.8961 26.2104 23.9055 26.2052C23.9144 26.2001 23.9233 26.1949 23.9405 26.1847C23.9495 26.1806 23.9495 26.1806 23.9722 26.1661L23.9839 26.1586L24.0004 26.1481L24.0308 26.1274L24.0309 26.1274C24.0763 26.0952 24.0763 26.0952 24.1099 26.068C24.1239 26.0574 24.1239 26.0574 24.1588 26.0274L24.1589 26.0273L24.1921 25.9973L24.215 25.9753L24.2152 25.9751L24.2273 25.963L24.2475 25.9426L24.2583 25.9312L24.2586 25.9309C24.2682 25.9203 24.2741 25.9136 24.2773 25.91C24.2794 25.9078 24.2803 25.9067 24.2802 25.9067L24.2733 25.9138C24.2895 25.8964 24.2934 25.8922 24.2972 25.8879L24.3012 25.8833L24.3017 25.8827C24.3217 25.8583 24.3218 25.8582 24.3321 25.8453L24.3323 25.8451L24.3436 25.8303C24.3527 25.8185 24.3578 25.8118 24.3627 25.8051L24.3665 25.7997L24.3791 25.7817L24.3792 25.7816L24.3927 25.7623C24.3978 25.7548 24.4028 25.7472 24.4149 25.7288L24.4149 25.7286L24.4521 25.6652L24.4668 25.6383C24.474 25.6248 24.474 25.6248 24.4828 25.607L24.4828 25.607C24.4865 25.6002 24.4865 25.6002 24.4932 25.5857L24.4996 25.5721C24.5241 25.5166 24.5241 25.5165 24.5355 25.4861L24.5355 25.4861L24.5355 25.486L24.5355 25.486C24.5451 25.463 24.5451 25.463 24.5566 25.4275L24.5569 25.4268L24.5602 25.4169L24.5602 25.4168L24.5603 25.4165L24.5704 25.3832L24.5722 25.3771C24.5795 25.3491 24.5826 25.3374 24.5854 25.3257L24.5884 25.3127L24.5924 25.2945L24.5924 25.2944C24.5987 25.2658 24.5987 25.2658 24.6036 25.2396L24.6036 25.2395C24.6075 25.215 24.6075 25.215 24.6095 25.1996V25.1996L24.6121 25.1785L24.6132 25.1689C24.616 25.1455 24.6172 25.135 24.6181 25.1245C24.6185 25.1197 24.6188 25.115 24.6191 25.1091C24.6194 25.1044 24.6198 25.099 24.6201 25.0922L24.6201 25.0921L24.6202 25.0919C24.6212 25.0656 24.6216 25.0558 24.6218 25.0459L24.6218 25.0247C24.6226 25 24.6226 25 24.6213 24.9581L24.6153 24.9087L24.6128 24.882C24.6112 24.8673 24.6103 24.8596 24.6093 24.8519C24.6088 24.8479 24.6082 24.8439 24.6075 24.839C24.6066 24.8333 24.6055 24.8263 24.604 24.8166C24.5995 24.7871 24.5995 24.7871 24.5918 24.749L24.5918 24.749ZM14.1824 26.3246L14.4478 26.48L14.351 26.6518L14.3646 26.6677L14.3127 26.7427L14.2954 26.7596L14.2918 26.7568L14.2916 26.7571L14.2953 26.7597L14.2837 26.771L14.2548 26.8223L14.2407 26.813L14.1285 26.9225L13.912 26.7088L13.9634 26.6311L13.9608 26.6294L13.992 26.5761L14.0224 26.5454L14.1824 26.3246ZM14.2953 26.7597L14.2954 26.7596L14.2991 26.7624L14.2953 26.7597ZM26.2326 17.7536L26.4867 17.5251L26.7374 17.8039L26.4445 17.9992L26.2326 17.7536ZM26.9502 18.1328L26.6533 18.1291L26.6497 18.237L26.6705 18.2611L26.6418 18.4888L26.6413 18.4887L26.6412 18.4938L26.6407 18.4976L26.641 18.4976L26.6391 18.5565L26.9874 18.615L26.997 18.5229L26.755 18.4997L26.999 18.504L27.0023 18.2396L26.8415 18.2228L26.9502 18.1328ZM26.755 18.4997L26.641 18.4976L26.6412 18.4938L26.6418 18.4888L26.755 18.4997ZM26.8415 18.2228L26.7224 18.3213L26.6705 18.2611L26.6774 18.2056L26.8415 18.2228ZM12.791 20.1577C12.3039 20.3017 11.8138 20.375 11.3351 20.375C10.8893 20.375 10.4585 20.3117 10.054 20.1864C9.77574 20.1003 9.5096 19.9845 9.26262 19.8418C8.60228 19.4593 8.4194 18.654 8.8804 18.0699C9.14422 17.7355 9.57167 17.5417 10.0243 17.5417C10.2947 17.5417 10.5568 17.6102 10.7849 17.7419C11.0536 17.8975 11.4546 17.9195 11.9081 17.785C12.4844 17.6144 13.027 17.2382 13.4326 16.7244C13.6967 16.3902 14.1236 16.1964 14.5764 16.1964C14.8455 16.1964 15.1083 16.2657 15.3356 16.3969C15.6509 16.578 15.8715 16.8629 15.9463 17.1965C16.0246 17.5384 15.9412 17.8877 15.7179 18.1693C14.9715 19.1146 13.9331 19.8199 12.791 20.1577ZM31.5 37.5V34.5C32.5936 34.5 34.5 30.8379 34.5 28.5C34.5 26.1621 32.5936 22.5 31.5 22.5V19.5C34.7812 19.5 37.5 24.7228 37.5 28.5C37.5 32.2772 34.7812 37.5 31.5 37.5ZM27 34.5V31.5C28.1208 31.5 28.5 30.7971 28.5 28.5C28.5 26.2029 28.1208 25.5 27 25.5V22.5C30.2775 22.5 31.5 24.7659 31.5 28.5C31.5 32.2341 30.2775 34.5 27 34.5Z" fill="white"/>
</mask>
<g mask="url(#mask0)">
<rect width="45" height="45" fill="black"/>
</g>
</g>
</svg>
